<?xml version="1.0" encoding="utf-8" ?>
<svg baseProfile="full" height="700px" version="1.1" width="1000px" xmlns="http://www.w3.org/2000/svg" xmlns:ev="http://www.w3.org/2001/xml-events" xmlns:xlink="http://www.w3.org/1999/xlink"><defs /><text fill="black" font-family="Arial" font-size="24" font-weight="bold" text-anchor="middle" x="500" y="30">Webtoon爬蟲工具數據流程圖</text><rect fill="#F8F9FA" height="580" rx="10" ry="10" stroke="gray" stroke-width="1" width="900" x="50" y="80" /><rect fill="#4285F4" fill-opacity="0.7" height="80" rx="5" ry="5" stroke="black" stroke-width="2" width="200" x="100" y="120" /><text fill="white" font-family="Arial" font-size="16" font-weight="bold" text-anchor="middle" x="200" y="145">用户输入</text><text fill="white" font-family="Arial" font-size="14" text-anchor="middle" x="200" y="170">Webtoon URL</text><rect fill="#EA4335" fill-opacity="0.7" height="80" rx="5" ry="5" stroke="black" stroke-width="2" width="200" x="400" y="120" /><text fill="white" font-family="Arial" font-size="16" font-weight="bold" text-anchor="middle" x="500" y="145">URL解析</text><text fill="white" font-family="Arial" font-size="14" text-anchor="middle" x="500" y="170">提取title_no参数</text><rect fill="#EA4335" fill-opacity="0.7" height="80" rx="5" ry="5" stroke="black" stroke-width="2" width="200" x="700" y="120" /><text fill="white" font-family="Arial" font-size="16" font-weight="bold" text-anchor="middle" x="800" y="145">HTTP请求</text><text fill="white" font-family="Arial" font-size="14" text-anchor="middle" x="800" y="170">获取网页内容</text><rect fill="#EA4335" fill-opacity="0.7" height="80" rx="5" ry="5" stroke="black" stroke-width="2" width="200" x="700" y="250" /><text fill="white" font-family="Arial" font-size="16" font-weight="bold" text-anchor="middle" x="800" y="275">内容解析</text><text fill="white" font-family="Arial" font-size="14" text-anchor="middle" x="800" y="300">BeautifulSoup解析HTML</text><rect fill="#EA4335" fill-opacity="0.7" height="80" rx="5" ry="5" stroke="black" stroke-width="2" width="200" x="400" y="250" /><text fill="white" font-family="Arial" font-size="16" font-weight="bold" text-anchor="middle" x="500" y="275">数据提取</text><text fill="white" font-family="Arial" font-size="14" text-anchor="middle" x="500" y="300">提取漫画信息和章节列表</text><rect fill="#EA4335" fill-opacity="0.7" height="80" rx="5" ry="5" stroke="black" stroke-width="2" width="200" x="100" y="250" /><text fill="white" font-family="Arial" font-size="16" font-weight="bold" text-anchor="middle" x="200" y="275">分页处理</text><text fill="white" font-family="Arial" font-size="14" text-anchor="middle" x="200" y="300">处理多页章节列表</text><rect fill="#EA4335" fill-opacity="0.7" height="80" rx="5" ry="5" stroke="black" stroke-width="2" width="200" x="250" y="380" /><text fill="white" font-family="Arial" font-size="16" font-weight="bold" text-anchor="middle" x="350" y="405">数据整合</text><text fill="white" font-family="Arial" font-size="14" text-anchor="middle" x="350" y="430">合并所有页面数据</text><rect fill="#EA4335" fill-opacity="0.7" height="80" rx="5" ry="5" stroke="black" stroke-width="2" width="200" x="550" y="380" /><text fill="white" font-family="Arial" font-size="16" font-weight="bold" text-anchor="middle" x="650" y="405">数据转换</text><text fill="white" font-family="Arial" font-size="14" text-anchor="middle" x="650" y="430">转换为Pandas DataFrame</text><rect fill="#34A853" fill-opacity="0.7" height="80" rx="5" ry="5" stroke="black" stroke-width="2" width="200" x="400" y="510" /><text fill="white" font-family="Arial" font-size="16" font-weight="bold" text-anchor="middle" x="500" y="535">Excel输出</text><text fill="white" font-family="Arial" font-size="14" text-anchor="middle" x="500" y="560">保存为.xlsx文件</text><line stroke="#5F6368" stroke-width="3" x1="300" x2="400" y1="160" y2="160" /><polygon fill="#5F6368" points="400,160 390,155 390,165" /><line stroke="#5F6368" stroke-width="3" x1="600" x2="700" y1="160" y2="160" /><polygon fill="#5F6368" points="700,160 690,155 690,165" /><line stroke="#5F6368" stroke-width="3" x1="800" x2="800" y1="200" y2="250" /><polygon fill="#5F6368" points="800,250 795,240 805,240" /><line stroke="#5F6368" stroke-width="3" x1="700" x2="600" y1="290" y2="290" /><polygon fill="#5F6368" points="600,290 610,285 610,295" /><line stroke="#5F6368" stroke-width="3" x1="400" x2="300" y1="290" y2="290" /><polygon fill="#5F6368" points="300,290 310,285 310,295" /><line stroke="#5F6368" stroke-width="3" x1="200" x2="250" y1="330" y2="380" /><polygon fill="#5F6368" points="250,380 242,372 252,370" /><line stroke="#5F6368" stroke-width="3" x1="450" x2="350" y1="330" y2="380" /><polygon fill="#5F6368" points="350,380 355,370 360,380" /><line stroke="#5F6368" stroke-width="3" x1="450" x2="550" y1="420" y2="420" /><polygon fill="#5F6368" points="550,420 540,415 540,425" /><line stroke="#5F6368" stroke-width="3" x1="650" x2="550" y1="460" y2="510" /><polygon fill="#5F6368" points="550,510 555,500 560,510" /><text fill="#FBBC05" font-family="Arial" font-size="10" font-weight="bold" x="350" y="140">URL字符串</text><text fill="#FBBC05" font-family="Arial" font-size="10" font-weight="bold" x="650" y="140">title_no参数</text><text fill="#FBBC05" font-family="Arial" font-size="10" font-weight="bold" x="850" y="225">HTML内容</text><text fill="#FBBC05" font-family="Arial" font-size="10" font-weight="bold" x="650" y="265">BeautifulSoup对象</text><text fill="#FBBC05" font-family="Arial" font-size="10" font-weight="bold" x="350" y="265">漫画信息字典</text><text fill="#FBBC05" font-family="Arial" font-size="10" font-weight="bold" x="150" y="330">章节列表数组</text><text fill="#FBBC05" font-family="Arial" font-size="10" font-weight="bold" x="500" y="400">合并数据字典</text><text fill="#FBBC05" font-family="Arial" font-size="10" font-weight="bold" x="750" y="400">DataFrame对象</text><text fill="#FBBC05" font-family="Arial" font-size="10" font-weight="bold" x="500" y="585">Excel文件</text></svg>