<?xml version="1.0" encoding="utf-8" ?>
<svg baseProfile="full" height="700px" version="1.1" width="1000px" xmlns="http://www.w3.org/2000/svg" xmlns:ev="http://www.w3.org/2001/xml-events" xmlns:xlink="http://www.w3.org/1999/xlink"><defs /><text fill="black" font-family="Arial" font-size="24" font-weight="bold" text-anchor="middle" x="500" y="30">Webtoon爬蟲工具類圖</text><rect fill="#FFFFFF" height="580" rx="10" ry="10" stroke="gray" stroke-width="1" width="900" x="50" y="80" /><rect fill="#E8F0FE" height="200" rx="5" ry="5" stroke="#1A73E8" stroke-width="2" width="300" x="150" y="120" /><rect fill="#4285F4" height="40" rx="5" ry="5" stroke="#1A73E8" stroke-width="2" width="300" x="150" y="120" /><text fill="white" font-family="Arial" font-size="16" font-weight="bold" text-anchor="middle" x="300.0" y="145">WebScraper</text><rect fill="#E8F0FE" height="50" stroke="#1A73E8" stroke-width="1" width="300" x="150" y="160" /><text fill="#202124" font-family="Arial" font-size="12" x="160" y="185">- url</text><text fill="#202124" font-family="Arial" font-size="12" x="160" y="205">- headers</text><rect fill="#F8F9FA" height="110" stroke="#1A73E8" stroke-width="1" width="300" x="150" y="210" /><text fill="#202124" font-family="Arial" font-size="12" x="160" y="235">+ __init__(url)</text><text fill="#202124" font-family="Arial" font-size="12" x="160" y="255">+ get_page_content()</text><text fill="#202124" font-family="Arial" font-size="12" x="160" y="275">+ parse_content(html_content)</text><text fill="#202124" font-family="Arial" font-size="12" x="160" y="295">+ save_to_csv(data, filename)</text><rect fill="#E8F0FE" height="280" rx="5" ry="5" stroke="#1A73E8" stroke-width="2" width="300" x="150" y="400" /><rect fill="#4285F4" height="40" rx="5" ry="5" stroke="#1A73E8" stroke-width="2" width="300" x="150" y="400" /><text fill="white" font-family="Arial" font-size="16" font-weight="bold" text-anchor="middle" x="300.0" y="425">WebtoonScraper</text><rect fill="#E8F0FE" height="50" stroke="#1A73E8" stroke-width="1" width="300" x="150" y="440" /><text fill="#202124" font-family="Arial" font-size="12" x="160" y="465">- base_url</text><text fill="#202124" font-family="Arial" font-size="12" x="160" y="485">- title_no</text><rect fill="#F8F9FA" height="190" stroke="#1A73E8" stroke-width="1" width="300" x="150" y="490" /><text fill="#202124" font-family="Arial" font-size="12" x="160" y="515">+ __init__(base_url, title_no)</text><text fill="#202124" font-family="Arial" font-size="12" x="160" y="535">+ get_url(page)</text><text fill="#202124" font-family="Arial" font-size="12" x="160" y="555">+ get_total_pages(soup)</text><text fill="#202124" font-family="Arial" font-size="12" x="160" y="575">+ scrape_all_pages()</text><text fill="#202124" font-family="Arial" font-size="12" x="160" y="595">+ parse_webtoon_content(soup)</text><text fill="#202124" font-family="Arial" font-size="12" x="160" y="615">+ get_webtoon_info(soup)</text><text fill="#202124" font-family="Arial" font-size="12" x="160" y="635">+ save_webtoon_info(info, filename)</text><text fill="#202124" font-family="Arial" font-size="12" x="160" y="655">+ save_to_excel(webtoon_info, chapters_data, filename)</text><rect fill="#E8F0FE" height="350" rx="5" ry="5" stroke="#1A73E8" stroke-width="2" width="350" x="550" y="120" /><rect fill="#4285F4" height="40" rx="5" ry="5" stroke="#1A73E8" stroke-width="2" width="350" x="550" y="120" /><text fill="white" font-family="Arial" font-size="16" font-weight="bold" text-anchor="middle" x="725.0" y="145">WebtoonScraperGUI</text><rect fill="#E8F0FE" height="210" stroke="#1A73E8" stroke-width="1" width="350" x="550" y="160" /><text fill="#202124" font-family="Arial" font-size="12" x="560" y="185">- root</text><text fill="#202124" font-family="Arial" font-size="12" x="560" y="205">- main_frame</text><text fill="#202124" font-family="Arial" font-size="12" x="560" y="225">- url_text</text><text fill="#202124" font-family="Arial" font-size="12" x="560" y="245">- day_var</text><text fill="#202124" font-family="Arial" font-size="12" x="560" y="265">- hour_var</text><text fill="#202124" font-family="Arial" font-size="12" x="560" y="285">- minute_var</text><text fill="#202124" font-family="Arial" font-size="12" x="560" y="305">- timezone_var</text><text fill="#202124" font-family="Arial" font-size="12" x="560" y="325">- schedule_running</text><text fill="#202124" font-family="Arial" font-size="12" x="560" y="345">- progress_var</text><text fill="#202124" font-family="Arial" font-size="12" x="560" y="365">- log_text</text><rect fill="#F8F9FA" height="100" stroke="#1A73E8" stroke-width="1" width="350" x="550" y="370" /><text fill="#202124" font-family="Arial" font-size="12" x="560" y="395">+ __init__(root)</text><text fill="#202124" font-family="Arial" font-size="12" x="560" y="415">+ toggle_schedule()</text><text fill="#202124" font-family="Arial" font-size="12" x="560" y="435">+ start_schedule()</text><text fill="#202124" font-family="Arial" font-size="12" x="560" y="455">+ stop_schedule()</text><text fill="#202124" font-family="Arial" font-size="12" x="560" y="475">+ run_schedule()</text><text fill="#202124" font-family="Arial" font-size="12" x="560" y="495">+ log_message(message)</text><text fill="#202124" font-family="Arial" font-size="12" x="560" y="515">+ start_scraping()</text><text fill="#202124" font-family="Arial" font-size="12" x="560" y="535">+ scrape_multiple_data(urls)</text><text fill="#202124" font-family="Arial" font-size="12" x="560" y="555">+ finish_scraping()</text><line stroke="#5F6368" stroke-width="2" x1="300" x2="300" y1="320" y2="400" /><polygon fill="white" points="300,400 290,390 310,390" stroke="#5F6368" stroke-width="2" /><line stroke="#5F6368" stroke-dasharray="5,5" stroke-width="2" x1="550" x2="450" y1="295" y2="450" /><polygon fill="#5F6368" points="450,450 440,445.0 440,455.0" /><text fill="#5F6368" font-family="Arial" font-size="12" text-anchor="middle" x="500.0" y="367.5">使用</text><rect fill="#F1F3F4" height="40" rx="5" ry="5" stroke="#DADCE0" stroke-width="1" width="100" x="50" y="580" /><text fill="#202124" font-family="Arial" font-size="12" text-anchor="middle" x="100" y="600">requests</text><rect fill="#F1F3F4" height="40" rx="5" ry="5" stroke="#DADCE0" stroke-width="1" width="100" x="200" y="580" /><text fill="#202124" font-family="Arial" font-size="12" text-anchor="middle" x="250" y="600">BeautifulSoup</text><rect fill="#F1F3F4" height="40" rx="5" ry="5" stroke="#DADCE0" stroke-width="1" width="100" x="350" y="580" /><text fill="#202124" font-family="Arial" font-size="12" text-anchor="middle" x="400" y="600">pandas</text><rect fill="#F1F3F4" height="40" rx="5" ry="5" stroke="#DADCE0" stroke-width="1" width="100" x="500" y="580" /><text fill="#202124" font-family="Arial" font-size="12" text-anchor="middle" x="550" y="600">openpyxl</text><rect fill="#F1F3F4" height="40" rx="5" ry="5" stroke="#DADCE0" stroke-width="1" width="100" x="650" y="580" /><text fill="#202124" font-family="Arial" font-size="12" text-anchor="middle" x="700" y="600">schedule</text><rect fill="#F1F3F4" height="40" rx="5" ry="5" stroke="#DADCE0" stroke-width="1" width="100" x="800" y="580" /><text fill="#202124" font-family="Arial" font-size="12" text-anchor="middle" x="850" y="600">tkinter</text><text fill="#202124" font-family="Arial" font-size="14" font-weight="bold" x="100" y="550">外部依赖库</text></svg>